<svg width="61" height="33" viewBox="0 0 61 33" fill="none" xmlns="http://www.w3.org/2000/svg">
<path d="M17.5411 32.8598C16.6582 33.0018 14.741 33.0464 13.9085 32.9448C11.2159 32.6153 8.3949 31.5147 6.3406 29.9923C3.69841 28.0347 1.79436 25.3837 0.760082 22.227C0.141487 20.3368 0 19.4269 0 17.3158C0 15.4504 0.126132 14.4607 0.545109 13.015C0.920215 11.7227 1.74281 9.69878 1.89308 9.69878C1.93914 9.69878 2.00934 10.0708 2.04992 10.5258C2.13547 11.501 2.62903 12.9995 3.17523 13.9478C3.6666 14.8017 4.56159 15.9095 5.3469 16.6391L5.95672 17.205V18.1014C5.95672 20.5399 6.83525 22.797 8.39929 24.3764C9.51912 25.507 10.7607 26.2459 12.3829 26.7465C13.0749 26.96 13.4391 27.0056 14.4437 27.0056C15.7731 27.0056 16.6209 26.8335 17.6837 26.3465C18.0116 26.1972 18.2979 26.0915 18.3198 26.1133C18.401 26.19 17.4029 26.9279 16.6505 27.3476C13.3689 29.1757 9.12208 28.8896 5.49058 26.5952C4.56378 26.0097 4.34662 25.9278 4.88405 26.3682C7.01842 28.1176 10.0236 29.2845 12.396 29.2855C13.7977 29.2855 15.8685 28.7103 17.2636 27.9321C19.2949 26.8014 21.3865 24.7878 23.3487 22.0778C23.9782 21.2083 26.1378 17.8485 26.1378 17.7387C26.1378 17.72 26.3517 17.3366 26.6127 16.8878C26.8749 16.4391 27.3443 15.6163 27.6569 15.0587C29.4842 11.8036 31.0734 9.20133 32.088 7.80332C35.3816 3.26417 38.7872 0.905471 43.1382 0.151019C44.7922 -0.13501 47.6175 -0.00235915 49.39 0.444301C54.1698 1.64956 58.2006 5.38555 59.9028 10.1879C60.789 12.6865 61.0621 14.4898 60.9886 17.3376C60.9086 20.3865 60.4567 22.169 59.1021 24.7775C57.7026 27.473 55.6308 29.6037 52.9469 31.1084C50.6984 32.3686 48.5191 32.9417 45.9899 32.9386C43.6548 32.9365 41.8977 32.5272 39.7041 31.4763L38.4307 30.8659L38.3989 31.7074L38.3671 32.55H33.4315L33.403 27.0937L33.3745 21.6374L34.8058 19.0237C36.9819 15.0504 37.9876 13.6493 39.6197 12.3259C40.8316 11.3424 42.2048 10.6709 43.3993 10.4781L43.8248 10.4097L43.102 11.1932C41.232 13.2192 40.144 15.3168 39.6197 17.9076C39.317 19.3989 39.3663 21.6052 39.7294 22.9121C40.1571 24.4458 41.017 25.9174 42.1456 27.0439C43.7875 28.6834 46.0096 29.6431 48.4654 29.7726C49.9526 29.8514 50.8191 29.7125 52.5937 29.1073C53.7048 28.728 55.9751 27.3662 56.5104 26.7569C56.7594 26.4729 56.5466 26.5724 55.8337 27.0729C54.886 27.7383 52.9195 28.614 51.8029 28.8679C48.6705 29.5798 45.7201 28.958 43.3356 27.0833C42.977 26.8014 42.7028 26.5537 42.7258 26.532C42.7488 26.5102 43.0362 26.59 43.3642 26.7092C44.1078 26.9797 45.2474 27.2128 45.8254 27.2128C46.5558 27.2128 47.9246 26.9227 48.7396 26.5952C49.8068 26.1661 50.6173 25.6345 51.588 24.7256C52.5838 23.794 53.209 22.9463 53.8342 21.6788C56.0739 17.1397 54.7742 10.6833 51.0099 7.65305C50.2016 7.00223 48.9271 6.35763 48.0036 6.13275C46.6019 5.79076 44.4149 5.94724 43.0889 6.48406C42.8147 6.59495 42.5898 6.64055 42.5898 6.58562C42.5898 6.41463 43.8676 5.5866 44.7231 5.20315C45.1706 5.0021 46.0217 4.70882 46.6129 4.55026C47.555 4.29947 47.8698 4.26423 49.1158 4.27356C50.2806 4.28185 50.7423 4.33367 51.6373 4.55648C53.5764 5.03838 55.1756 5.89335 56.7385 7.28204C58.0722 8.46761 57.786 7.96395 56.381 6.65299C54.3837 4.79069 52.2482 3.75436 49.8002 3.46315C47.3828 3.17401 44.7088 3.95126 42.3365 5.63012C41.4711 6.24363 39.7359 7.87897 38.955 8.81789C37.5731 10.4791 35.8851 13.071 33.9262 16.5386C29.9646 23.5546 28.0539 26.3226 25.4808 28.7808C24.0473 30.1509 22.8145 31.0089 21.2571 31.7219C19.8992 32.3437 18.9626 32.6308 17.5411 32.8598ZM20.1636 22.938C19.6755 23.4085 19.2225 23.7929 19.1567 23.7929C19.0898 23.7929 19.0141 23.5484 18.9878 23.2489C18.8781 21.9928 17.9458 20.8435 16.3281 19.9689C15.8652 19.7181 14.3406 19.0382 12.9422 18.4568C9.79003 17.148 9.10782 16.8225 7.85637 16.0318C6.37021 15.0919 5.2098 13.8825 4.52539 12.558C3.81906 11.1911 3.60079 10.1765 3.68963 8.66244C3.76092 7.44889 4.00332 6.54106 4.51991 5.55654C5.96769 2.80093 8.89833 0.86609 12.6472 0.192472C13.8087 -0.0158315 16.2677 -0.0396672 17.3086 0.146873C21.0191 0.815309 24.0331 2.7802 25.8856 5.7379C26.3791 6.52655 27.454 8.60959 27.454 8.77747C27.454 8.89769 26.9034 9.1547 26.1016 9.4086C25.5861 9.57234 25.1364 9.62416 24.2184 9.6283C22.2266 9.63556 21.4731 9.27491 19.9968 7.60849C18.3495 5.7493 16.9423 5.02076 15.0086 5.02594C13.37 5.03008 12.1657 5.48711 11.1863 6.47681C10.5468 7.12348 10.2288 7.78674 10.152 8.64068C10.0346 9.95164 9.55861 8.91012 9.54654 7.3152C9.53119 5.27051 10.5019 3.36055 12.158 2.17809C12.5441 1.90346 12.838 1.65785 12.8128 1.63298C12.7865 1.60914 12.4037 1.8019 11.9617 2.06202C10.2957 3.04343 9.30415 4.41347 8.95208 6.22083C8.74149 7.30588 8.85885 8.16914 9.35131 9.15159C10.1498 10.7465 11.4484 11.56 16.1021 13.3809C17.3689 13.8762 18.7015 14.4224 19.0635 14.5944C20.7295 15.3862 22.1926 16.5116 22.9834 17.6122L23.4276 18.2299L22.9626 19.1201C22.253 20.4808 21.1452 21.9918 20.1636 22.938Z" fill="url(#paint0_linear_220_113)"/>
<defs>
<linearGradient id="paint0_linear_220_113" x1="2" y1="4" x2="42" y2="40" gradientUnits="userSpaceOnUse">
<stop stop-color="#2E54A2"/>
<stop offset="1" stop-color="#23385B"/>
</linearGradient>
</defs>
</svg>
